<?xml version="1.0" encoding="UTF-8"?>
<svg version="1.1" xmlns="http://www.w3.org/2000/svg" width="1024" height="1024">
<path d="M0 0 C337.92 0 675.84 0 1024 0 C1024 337.92 1024 675.84 1024 1024 C686.08 1024 348.16 1024 0 1024 C0 686.08 0 348.16 0 0 Z " fill="transparent" transform="translate(0,0)"/>
<path d="M0 0 C1.30217592 -0.00256327 2.60435184 -0.00512655 3.94598764 -0.0077675 C7.54005405 -0.01444292 11.13384983 -0.00252077 14.72788179 0.01256669 C18.61119504 0.02556558 22.49449398 0.02113487 26.37782288 0.01885986 C33.09919897 0.01728956 39.82048745 0.02667333 46.54184151 0.04357338 C56.25968397 0.0679918 65.97748422 0.07577156 75.69535404 0.07953735 C91.46330343 0.08609738 107.23120617 0.10604636 122.99913025 0.13444519 C138.31292996 0.16199738 153.62671699 0.18322528 168.9405365 0.19596863 C169.88504959 0.1967568 170.82956267 0.19754497 171.80269737 0.19835702 C176.54121217 0.20227224 181.27972705 0.20606334 186.018242 0.20979273 C225.30658181 0.24087467 264.59486955 0.29369824 303.88316345 0.36076355 C302.9304458 3.23883248 301.97611491 6.11634969 301.02085876 8.99357605 C300.61929062 10.20751038 300.61929062 10.20751038 300.20960999 11.44596863 C298.19928843 17.49498203 296.01305154 23.44684596 293.63316345 29.36076355 C292.86028295 31.30968699 292.08817923 33.25891861 291.3167572 35.2084198 C290.72290222 36.70526306 290.72290222 36.70526306 290.11705017 38.23234558 C287.94406692 43.74176532 285.81975753 49.26984892 283.69566345 54.79826355 C283.27438171 55.89372498 282.85309998 56.9891864 282.41905212 58.11784363 C279.61337762 65.42586556 276.84927869 72.74802768 274.1370697 80.0912323 C272.81029162 83.55077514 271.34272757 86.95511394 269.88316345 90.36076355 C199.59316345 90.36076355 129.30316345 90.36076355 56.88316345 90.36076355 C56.55316345 92.01076355 56.22316345 93.66076355 55.88316345 95.36076355 C55.33733669 97.06413347 54.75692156 98.75666772 54.14903259 100.43888855 C53.61826866 101.91567078 53.61826866 101.91567078 53.07678223 103.42228699 C52.69448959 104.47448425 52.31219696 105.52668152 51.9183197 106.61076355 C51.52494919 107.70163269 51.13157867 108.79250183 50.72628784 109.91642761 C49.46938572 113.39907736 48.20747953 116.87989161 46.94566345 120.36076355 C46.09965482 122.70440329 45.25394824 125.04815209 44.40855408 127.39201355 C43.59958302 129.63169577 42.79034709 131.87128235 41.9808197 134.11076355 C41.6005513 135.16296082 41.2202829 136.21515808 40.82849121 137.29924011 C40.47149643 138.2837616 40.11450165 139.26828308 39.74668884 140.28263855 C39.4343782 141.1446991 39.12206757 142.00675964 38.80029297 142.89494324 C38.1694914 144.59093415 37.48830655 146.26875797 36.76669312 147.92814636 C35.65557555 150.55603035 35.65557555 150.55603035 35.88316345 154.36076355 C36.54316345 153.70076355 37.20316345 153.04076355 37.88316345 152.36076355 C40.31698959 152.16780618 42.63650059 152.10017152 45.07106018 152.12025452 C45.82005911 152.11854567 46.56905804 152.11683682 47.34075391 152.11507618 C49.86361246 152.11176825 52.3862081 152.12280624 54.90904236 152.13371277 C56.71227004 152.1342766 58.51549818 152.13396087 60.31872559 152.13282776 C65.22551538 152.13225215 70.13220808 152.14403997 75.03897524 152.15797567 C80.16260064 152.17044853 85.28622809 152.17165081 90.40986633 152.17402649 C100.11733791 152.18025142 109.82476463 152.19667589 119.53221643 152.21672547 C130.58162309 152.23905302 141.63103185 152.25006998 152.68045545 152.26011634 C175.41471635 152.28104127 198.14893739 152.31623686 220.88316345 152.36076355 C220.58092607 153.93584627 220.27507886 155.51023653 219.96775818 157.08433533 C219.71287502 158.39955484 219.71287502 158.39955484 219.45284271 159.74134445 C218.59442558 163.68839743 217.317209 167.44608447 215.97691345 171.25138855 C215.69588776 172.0668364 215.41486206 172.88228424 215.12532043 173.72244263 C214.21721507 176.35398454 213.30039832 178.98239143 212.38316345 181.61076355 C211.1123405 185.27783713 209.84534172 188.94622756 208.57847595 192.6146698 C208.26310883 193.52586075 207.9477417 194.4370517 207.62281799 195.37585449 C205.65593452 201.07220678 203.73978806 206.78244615 201.87535095 212.5131073 C201.64845581 213.20778107 201.42156067 213.90245483 201.18778992 214.61817932 C200.14134414 217.82441208 199.10385692 221.03280655 198.08042908 224.24650574 C193.78069771 237.42907404 193.78069771 237.42907404 187.88316345 241.36076355 C185.39654647 241.54947609 183.02325022 241.62175322 180.53704834 241.60127258 C179.78311143 241.60298143 179.02917452 241.60469028 178.25239104 241.60645092 C175.71881897 241.60975271 173.18551007 241.59873086 170.65196228 241.58781433 C168.83873501 241.58725037 167.02550728 241.58756649 165.21228027 241.58869934 C160.28282326 241.58927443 155.35346309 241.5774949 150.42402864 241.56355143 C145.27505115 241.55107003 140.12607158 241.54987562 134.9770813 241.54750061 C125.22360234 241.54127821 115.47016809 241.52485712 105.71670884 241.50480163 C94.61407563 241.48246626 83.51144031 241.47145515 72.40879023 241.46141076 C49.56688983 241.44049155 26.72502914 241.40530082 3.88316345 241.36076355 C3.68714444 242.02427952 3.49112543 242.68779549 3.28916645 243.371418 C0.68236573 252.13892561 0.68236573 252.13892561 -0.8875885 256.39103699 C-1.36086578 257.67972435 -1.36086578 257.67972435 -1.84370422 258.9944458 C-2.1774707 259.89392441 -2.51123718 260.79340302 -2.8551178 261.72013855 C-3.39069305 263.1746769 -3.39069305 263.1746769 -3.93708801 264.65859985 C-5.09834966 267.81036973 -6.26381101 270.96056826 -7.42933655 274.11076355 C-8.24594 276.32460938 -9.06226153 278.53855922 -9.87831116 280.75260925 C-11.52071652 285.2073684 -13.16472086 289.66153191 -14.81019592 294.11515808 C-16.81741644 299.54843582 -18.82019313 304.98333289 -20.81996155 310.4193573 C-23.64525697 318.09860041 -26.4749266 325.77622095 -29.30677795 333.45304871 C-30.56495973 336.86392579 -31.8223441 340.27509561 -33.07923889 343.68644714 C-37.32138157 355.19887739 -41.57449584 366.70718526 -45.83900452 378.21134949 C-47.41684706 382.46860067 -48.99087008 386.72724232 -50.56263733 390.98674011 C-52.61355841 396.54341221 -54.67263985 402.09700192 -56.73707581 407.64866638 C-57.52568249 409.77326984 -58.31161579 411.89886771 -59.09474182 414.02549744 C-60.18468617 416.98375863 -61.28434801 419.9382333 -62.3863678 422.89201355 C-62.70545609 423.76488007 -63.02454437 424.63774658 -63.353302 425.5370636 C-65.59648848 431.50591978 -67.64478963 436.71273227 -73.11683655 440.36076355 C-75.7320512 440.56526115 -78.2416608 440.65448053 -80.85780334 440.65129089 C-81.64518387 440.65800812 -82.43256439 440.66472534 -83.24380493 440.67164612 C-85.85128569 440.69066841 -88.45850942 440.69455303 -91.0660553 440.69670105 C-92.8810639 440.70312823 -94.69607146 440.70985654 -96.51107788 440.71687317 C-100.32003682 440.72885806 -104.128905 440.73255297 -107.93788147 440.73136902 C-112.80576441 440.73116626 -117.67306068 440.75841794 -122.54080486 440.79291344 C-126.29246664 440.81521843 -130.04398833 440.81920539 -133.79570961 440.81814957 C-135.58936895 440.82050205 -137.38303237 440.82930563 -139.17662621 440.8448143 C-141.694459 440.86453865 -144.21104166 440.8586107 -146.72889709 440.84660339 C-147.46218231 440.85784241 -148.19546753 440.86908142 -148.95097351 440.88066101 C-155.65104544 440.79997635 -160.80560367 438.50491935 -165.71058655 433.95451355 C-169.56192709 428.80655502 -171.97053875 422.6828376 -174.61683655 416.86076355 C-175.23801146 415.50978365 -175.85951872 414.15895652 -176.4813385 412.80827332 C-187.01134646 389.85211517 -196.74788365 366.54977044 -206.54750061 343.27580261 C-212.05646076 330.19902344 -217.62896003 317.15072648 -223.23530579 304.11543274 C-231.52648363 284.83578744 -239.68049704 265.5039301 -247.72889709 246.12174988 C-253.39676393 232.4739734 -259.11110204 218.84671668 -264.86683655 205.23576355 C-265.26195435 204.30131409 -265.65707214 203.36686462 -266.06416321 202.40409851 C-267.62880701 198.70401086 -269.1936021 195.0039873 -270.7587738 191.30412292 C-274.23006646 183.09710602 -277.68895268 174.88489604 -281.14466858 166.67131042 C-287.37808355 151.85638344 -293.61838393 137.04435439 -299.86683655 122.23576355 C-300.27298187 121.27315613 -300.6791272 120.31054871 -301.09757996 119.31877136 C-305.88126859 107.98405863 -310.69014716 96.66116585 -315.55433655 85.36076355 C-319.42799376 76.34690447 -323.26776962 67.31936633 -327.04533386 58.26481628 C-327.58753816 56.96686151 -328.1315089 55.66964305 -328.67735291 54.37321472 C-329.42803111 52.58870135 -330.171057 50.80097473 -330.91371155 49.0131073 C-331.34006897 47.99208923 -331.76642639 46.97107117 -332.20570374 45.91911316 C-333.11683655 43.36076355 -333.11683655 43.36076355 -333.11683655 40.36076355 C-292.85683655 40.36076355 -252.59683655 40.36076355 -211.11683655 40.36076355 C-203.08958013 58.70877822 -203.08958013 58.70877822 -199.9957428 66.4427948 C-199.64728806 67.30732773 -199.29883331 68.17186066 -198.93981934 69.06259155 C-197.85075409 71.76525498 -196.76474834 74.46913104 -195.67933655 77.17326355 C-191.21677664 88.27974316 -186.72202534 99.36731857 -182.05644226 110.39027405 C-178.82239907 118.03605254 -175.67362914 125.71566982 -172.53404236 133.40061951 C-166.92866618 147.11871392 -161.27279261 160.81444777 -155.55433655 174.48576355 C-150.01980196 187.71851557 -144.59415561 200.99266493 -139.2224884 214.29231262 C-134.61844878 225.69062108 -129.95575227 237.05965368 -125.11683655 248.36076355 C-122.98854158 246.23246858 -122.46719764 244.99001453 -121.47206116 242.20011902 C-121.16090866 241.33675934 -120.84975616 240.47339966 -120.5291748 239.58387756 C-120.19587662 238.64142181 -119.86257843 237.69896606 -119.5191803 236.72795105 C-119.16602249 235.744487 -118.81286469 234.76102295 -118.44900513 233.74775696 C-117.31211878 230.5789717 -116.18287423 227.40753065 -115.05433655 224.23576355 C-113.58688283 220.1280601 -112.11623482 216.0215078 -110.6441803 211.91545105 C-110.27320724 210.87971451 -109.90223419 209.84397797 -109.52001953 208.77685547 C-106.57166025 200.56895995 -103.52940862 192.39873038 -100.45445251 184.23754883 C-96.46782343 173.65529429 -92.57088506 163.04077663 -88.67933655 152.42326355 C-87.50477987 149.22107804 -86.32999536 146.01897617 -85.15519714 142.81687927 C-84.3499767 140.62205314 -83.54486221 138.42718813 -82.73985291 136.23228455 C-79.97926846 128.70660687 -77.21187719 121.18345854 -74.4410553 113.6615448 C-72.91594522 109.51975403 -71.39125056 105.37781056 -69.86683655 101.23576355 C-69.49328033 100.22092896 -69.11972412 99.20609436 -68.73484802 98.1605072 C-63.88454052 84.97717486 -59.10017096 71.77232294 -54.38218689 58.54109192 C-52.20578803 52.44754811 -50.008278 46.36162184 -47.80769348 40.27677917 C-47.16525715 38.49505275 -46.52874338 36.71119389 -45.89271545 34.9271698 C-41.02387682 21.35579535 -35.70622519 10.06818085 -22.11683655 3.36076355 C-14.80366333 0.10536971 -7.91383835 -0.05728496 0 0 Z " fill="#B40F18" transform="translate(527.1168365478516,222.6392364501953)"/>
<path d="M0 0 C1.95839043 -0.00640819 1.95839043 -0.00640819 3.95634431 -0.01294583 C7.54155734 -0.0240167 11.1260099 -0.0042801 14.71112621 0.02094448 C18.59164073 0.04269074 22.47211801 0.03521912 26.35267639 0.03143311 C33.06313415 0.02882099 39.7733474 0.04440687 46.48374367 0.0726223 C56.18561084 0.11338934 65.8873607 0.12629297 75.58930423 0.13256226 C91.33289304 0.1434848 107.07635175 0.17670344 122.81987 0.22407532 C138.10632174 0.27002385 153.39273806 0.3053898 168.679245 0.32661438 C170.09443828 0.32858481 170.09443828 0.32858481 171.53822134 0.33059504 C176.27165346 0.33712059 181.00508582 0.34343904 185.73851836 0.34965456 C224.95981841 0.40142399 264.18097328 0.48943348 303.40214539 0.60127258 C302.44942773 3.47934151 301.49509685 6.35685872 300.5398407 9.23408508 C300.2721286 10.04337463 300.0044165 10.85266418 299.72859192 11.68647766 C297.71827036 17.73549106 295.53203347 23.687355 293.15214539 29.60127258 C292.37926488 31.55019602 291.60716117 33.49942764 290.83573914 35.44892883 C290.43983582 36.44682434 290.0439325 37.44471985 289.6360321 38.47285461 C287.46304885 43.98227436 285.33873946 49.51035795 283.21464539 55.03877258 C282.79336365 56.13423401 282.37208191 57.22969543 281.93803406 58.35835266 C279.13235955 65.6663746 276.36826062 72.98853671 273.65605164 80.33174133 C272.32927356 83.79128417 270.86170951 87.19562297 269.40214539 90.60127258 C199.44214539 90.60127258 129.48214539 90.60127258 57.40214539 90.60127258 C57.07214539 89.94127258 56.74214539 89.28127258 56.40214539 88.60127258 C16.80214539 88.60127258 -22.79785461 88.60127258 -63.59785461 88.60127258 C-64.71450297 85.25132751 -64.53548082 84.71776129 -63.36958313 81.55488586 C-63.0749971 80.7419809 -62.78041107 79.92907593 -62.47689819 79.09153748 C-62.14685287 78.21045319 -61.81680756 77.3293689 -61.47676086 76.42158508 C-61.13918259 75.49900909 -60.80160431 74.57643311 -60.45379639 73.62590027 C-59.36457216 70.65611733 -58.26252798 67.69127077 -57.16035461 64.72627258 C-56.45185673 62.79818667 -55.74416602 60.86980395 -55.03730774 58.94111633 C-53.26668325 54.11852324 -51.47134467 49.30550268 -49.6709137 44.49397278 C-48.59230701 41.58631763 -47.53831824 38.67061533 -46.48799133 35.75263977 C-45.80487184 33.88696579 -45.12145293 32.02140141 -44.43769836 30.15596008 C-43.99050194 28.88826279 -43.99050194 28.88826279 -43.53427124 27.59495544 C-39.89088327 17.76747125 -33.32907153 8.95863929 -23.79880458 4.20517474 C-15.65155886 0.88902761 -8.75078261 -0.10660094 0 0 Z " fill="#FB3235" transform="translate(527.5978546142578,222.3987274169922)"/>
<path d="M0 0 C40.26 0 80.52 0 122 0 C130.02725642 18.34801467 130.02725642 18.34801467 133.12109375 26.08203125 C133.46954849 26.94656418 133.81800323 27.81109711 134.17701721 28.701828 C135.26608246 31.40449143 136.35208821 34.10836749 137.4375 36.8125 C141.90005991 47.91897961 146.3948112 59.00655502 151.06039429 70.0295105 C154.29443748 77.67528899 157.44320741 85.35490627 160.58279419 93.03985596 C166.48945643 107.49529084 172.45785298 121.92347965 178.48464966 136.32919312 C184.03358424 149.6003812 189.45657068 162.92069047 194.81469727 176.27001953 C195.39680941 177.71666812 195.97940113 179.16312385 196.5625 180.609375 C196.84234238 181.3034848 197.12218475 181.9975946 197.4105072 182.71273804 C199.77476623 188.53361197 202.28301448 194.28721684 204.86743164 200.01361084 C207 204.7888498 207 204.7888498 207 207 C167.07 207 127.14 207 86 207 C75.9498633 183.35261953 65.91331022 159.70423288 56 136 C36.93472426 90.43496748 36.93472426 90.43496748 17.5625 45 C13.68883809 35.98614297 9.84906691 26.95860273 6.07150269 17.90405273 C5.52929839 16.60609796 4.98532765 15.3088795 4.43948364 14.01245117 C3.68880544 12.2279378 2.94577955 10.44021118 2.203125 8.65234375 C1.77676758 7.63132568 1.35041016 6.61030762 0.91113281 5.55834961 C0 3 0 3 0 0 Z " fill="#F93033" transform="translate(194,263)"/>
<path d="M0 0 C1 2 1 2 0.39703369 4.24726868 C0.05492859 5.18572128 -0.28717651 6.12417389 -0.63964844 7.09106445 C-1.02506302 8.15958145 -1.4104776 9.22809845 -1.80757141 10.32899475 C-2.2371666 11.4953093 -2.66676178 12.66162384 -3.109375 13.86328125 C-3.54714767 15.06943588 -3.98492035 16.27559052 -4.43595886 17.51829529 C-5.61968575 20.7784028 -6.81306968 24.03489583 -8.00858688 27.29069519 C-8.9966967 29.98523233 -9.97922507 32.6817896 -10.96174145 35.37837029 C-16.666765 51.03405896 -22.44889395 66.65764879 -28.41796875 82.21484375 C-31.30140293 89.74890518 -34.08120863 97.32035227 -36.86141968 104.89294434 C-39.25008353 111.39714548 -41.64717679 117.89825032 -44.04260254 124.39996338 C-45.03686177 127.10010676 -46.02964986 129.80078869 -47.02246094 132.50146484 C-48.71939191 137.11447449 -50.425119 141.72415665 -52.13635254 146.33187866 C-52.78978992 148.09534873 -53.44047534 149.85984122 -54.08825684 151.62539673 C-54.99166131 154.08636574 -55.90482039 156.54350656 -56.8203125 159 C-57.08331146 159.72330002 -57.34631042 160.44660004 -57.61727905 161.19181824 C-59.70705981 166.75004827 -61.9189318 171.6126212 -67 175 C-69.61521465 175.2044976 -72.12482426 175.29371698 -74.7409668 175.29052734 C-75.52834732 175.29724457 -76.31572784 175.30396179 -77.12696838 175.31088257 C-79.73444915 175.32990486 -82.34167288 175.33378948 -84.94921875 175.3359375 C-86.76422735 175.34236468 -88.57923491 175.34909299 -90.39424133 175.35610962 C-94.20320027 175.36809451 -98.01206846 175.37178942 -101.82104492 175.37060547 C-106.68892786 175.37040271 -111.55622413 175.39765439 -116.42396832 175.43214989 C-120.17563009 175.45445488 -123.92715178 175.45844184 -127.67887306 175.45738602 C-129.47253241 175.4597385 -131.26619582 175.46854208 -133.05978966 175.48405075 C-135.57762245 175.5037751 -138.09420512 175.49784715 -140.61206055 175.48583984 C-141.34534576 175.49707886 -142.07863098 175.50831787 -142.83413696 175.51989746 C-149.53420889 175.4392128 -154.68876713 173.1441558 -159.59375 168.59375 C-163.44515916 163.44569976 -165.8532987 157.32197444 -168.5 151.5 C-169.11455356 150.16438724 -169.72946904 148.82894096 -170.34472656 147.49365234 C-176.25694121 134.6129365 -181.9210178 121.62448549 -187.47167969 108.58447266 C-188.99405208 105.01395005 -190.53169868 101.4502671 -192.0703125 97.88671875 C-193.00617788 95.69572638 -193.94112302 93.50434063 -194.875 91.3125 C-195.31038086 90.30848145 -195.74576172 89.30446289 -196.19433594 88.27001953 C-196.58137695 87.3520459 -196.96841797 86.43407227 -197.3671875 85.48828125 C-197.87934814 84.29005737 -197.87934814 84.29005737 -198.40185547 83.06762695 C-199 81 -199 81 -198 78 C-182.82 78 -167.64 78 -152 78 C-145.17198085 60.51300807 -145.17198085 60.51300807 -138.75 42.875 C-135.95561924 34.87290964 -132.97611065 26.93629506 -130 19 C-89.41 19 -48.82 19 -7 19 C-6.01 15.7 -5.02 12.4 -4 9 C-3.3152995 7.27336396 -2.59947006 5.55748772 -1.8125 3.875 C-1.29623047 2.75738281 -1.29623047 2.75738281 -0.76953125 1.6171875 C-0.51558594 1.08351563 -0.26164063 0.54984375 0 0 Z " fill="#800912" transform="translate(521,488)"/>
<path d="M0 0 C3.40901359 2.7228584 4.63549483 6.44924968 6.1953125 10.3828125 C6.50008514 11.13301666 6.80485779 11.88322083 7.11886597 12.65615845 C7.78033184 14.28679853 8.43832669 15.91884993 9.09326172 17.55212402 C10.49723356 21.05324974 11.91765898 24.54762576 13.33685303 28.04260254 C14.08241735 29.87939782 14.82707144 31.71656281 15.57086182 33.55407715 C19.30269088 42.76997834 23.10230808 51.95729478 26.91595459 61.1395874 C27.96606643 63.66828698 29.01469278 66.19759778 30.06298828 68.72705078 C30.72940083 70.33369675 31.39590331 71.94030542 32.0625 73.546875 C32.38290253 74.31961761 32.70330505 75.09236023 33.03341675 75.88851929 C34.76288186 80.05155897 36.50982699 84.20647661 38.27734375 88.35351562 C38.64915771 89.22808411 39.02097168 90.10265259 39.40405273 91.00372314 C40.12049325 92.68665612 40.83993347 94.36831608 41.56274414 96.04852295 C44 101.77779449 44 101.77779449 44 104 C4.07 104 -35.86 104 -77 104 C-97.6570283 55.39522754 -97.6570283 55.39522754 -106.20263672 34.90979004 C-107.04013483 32.90387179 -107.87928213 30.89864935 -108.71875 28.89355469 C-110.1485814 25.47778133 -111.57461939 22.06044753 -112.99789429 18.64193726 C-113.53645421 17.349801 -114.07616872 16.05814531 -114.61709595 14.76699829 C-115.35876249 12.99580615 -116.09552666 11.22256357 -116.83203125 9.44921875 C-117.46202026 7.93847778 -117.46202026 7.93847778 -118.10473633 6.3972168 C-119 4 -119 4 -119 2 C-79.73 2 -40.46 2 0 2 C0 1.34 0 0.68 0 0 Z " fill="#E61C25" transform="translate(357,366)"/>
<path d="M0 0 C0.79527823 0.00202675 1.59055647 0.0040535 2.40993404 0.00614166 C3.2541891 0.004412 4.09844416 0.00268234 4.9682827 0.00090027 C7.86771559 -0.00354358 10.76709186 -0.00045493 13.66652584 0.00272369 C15.79797539 0.00170136 17.92942481 0.00035814 20.06087399 -0.00127411 C26.05302639 -0.00405216 32.04515402 0.00064484 38.03730297 0.00696564 C41.85966475 0.01053052 45.68202271 0.01215792 49.50438595 0.01322174 C142.18777571 0.04476227 234.87139955 0.64865446 327.55324459 1.13553619 C327.55324459 1.46553619 327.55324459 1.79553619 327.55324459 2.13553619 C257.92324459 2.46553619 188.29324459 2.79553619 116.55324459 3.13553619 C111.27324459 17.65553619 105.99324459 32.17553619 100.55324459 47.13553619 C98.57324459 52.41553619 96.59324459 57.69553619 94.55324459 63.13553619 C93.89324459 65.44553619 93.23324459 67.75553619 92.55324459 70.13553619 C89.5970149 79.58521839 86.22938418 88.94518723 82.55324459 98.13553619 C41.63324459 98.13553619 0.71324459 98.13553619 -41.44675541 98.13553619 C-38.07179259 86.88566014 -38.07179259 86.88566014 -36.67600346 83.10526276 C-36.36056583 82.24636444 -36.04512821 81.38746613 -35.72013187 80.50254059 C-35.38628483 79.60283539 -35.05243778 78.70313019 -34.70847416 77.77616119 C-34.35069889 76.80442963 -33.99292362 75.83269806 -33.62430668 74.83152008 C-32.46385651 71.68178035 -31.29917603 68.53362498 -30.13425541 65.38553619 C-29.32940116 63.20463817 -28.52479744 61.02364767 -27.72043705 58.84256744 C-26.49599514 55.52301224 -25.27116464 52.20360349 -24.04500675 48.8846817 C-21.41242594 41.75886345 -18.79217005 34.62864799 -16.18113041 27.49491119 C-15.21972269 24.87158334 -14.25805712 22.24835018 -13.29627323 19.62516022 C-12.68944823 17.96865082 -12.08346737 16.31183194 -11.4783411 14.65470123 C-10.64613157 12.37653956 -9.81054327 10.09964583 -8.97409916 7.82303619 C-8.73016422 7.15254242 -8.48622929 6.48204865 -8.23490238 5.79123688 C-6.22514943 0.33904839 -5.86999017 0.02324826 0 0 Z " fill="#DA1520" transform="translate(468.4467554092407,309.86446380615234)"/>
<path d="M0 0 C1 3 1 3 -3 13 C-72.96 13 -142.92 13 -215 13 C-215.33 11.68 -215.66 10.36 -216 9 C-214.98731237 8.99576806 -213.97462475 8.99153612 -212.93124962 8.98717594 C-188.24955284 8.88381796 -163.56788438 8.77504901 -138.88623619 8.66066074 C-126.95020873 8.60546693 -115.01417828 8.5520083 -103.078125 8.50268555 C-92.67033133 8.45967349 -82.26255843 8.41335376 -71.85479701 8.36312145 C-66.34794131 8.33665694 -60.84108937 8.31180851 -55.33420944 8.29092598 C-50.14191309 8.27118399 -44.94965577 8.24699079 -39.75739479 8.21950912 C-37.86046503 8.21023078 -35.96352677 8.20252347 -34.06658363 8.19658089 C-23.66245379 8.16300776 -13.37011256 7.92776289 -3 7 C-2.01 4.69 -1.02 2.38 0 0 Z " fill="#F0272E" transform="translate(800,300)"/>
<path d="M0 0 C60.39 0 120.78 0 183 0 C181.54147363 7.29263186 179.98553323 13.6535114 177.5625 20.5625 C177.26279297 21.46291016 176.96308594 22.36332031 176.65429688 23.29101562 C176.35716797 24.14501953 176.06003906 24.99902344 175.75390625 25.87890625 C175.48908447 26.6479126 175.2242627 27.41691895 174.95141602 28.20922852 C174 30 174 30 171 31 C171.28427417 29.41532272 171.57774818 27.8322943 171.875 26.25 C172.11863281 24.92742187 172.11863281 24.92742187 172.3671875 23.578125 C172.9723216 21.11276386 173.8291368 19.23570335 175 17 C175.33 15.824375 175.66 14.64875 176 13.4375 C177 10 177 10 179 7 C179 6.01 179 5.02 179 4 C90.395 3.505 90.395 3.505 0 3 C0 2.01 0 1.02 0 0 Z " fill="#DB535A" transform="translate(565,375)"/>
<path d="M0 0 C1.6578507 0.00223852 1.6578507 0.00223852 3.34919333 0.00452226 C4.56319068 0.01132605 5.77718803 0.01812984 7.02797318 0.02513981 C8.96257821 0.0299835 8.96257821 0.0299835 10.93626618 0.03492504 C14.51875048 0.04403063 18.1011841 0.05946142 21.6836412 0.07590783 C25.54589937 0.09253662 29.40817433 0.10332392 33.27045059 0.11481571 C39.9629727 0.13553045 46.65547303 0.15995757 53.34797287 0.18689632 C63.02423949 0.22584004 72.70051901 0.25920021 82.37681082 0.29119159 C98.07542729 0.34324564 113.77402407 0.39982398 129.47261429 0.4592371 C144.72358305 0.51694648 159.97455712 0.57253156 175.22554398 0.62525272 C176.16539669 0.62850244 177.1052494 0.63175216 178.0735825 0.63510036 C182.78848229 0.65138989 187.50338222 0.66763758 192.21828222 0.68386447 C231.34165812 0.81856638 270.46500477 0.96060638 309.58833694 1.10743046 C309.58833694 1.43743046 309.58833694 1.76743046 309.58833694 2.10743046 C308.60953728 2.11003483 308.60953728 2.11003483 307.61096388 2.11269182 C268.93109967 2.21573419 230.25125261 2.32384968 191.57142112 2.4385474 C186.92642507 2.45231687 182.2814289 2.46604398 177.63643265 2.47974491 C176.71170286 2.48247322 175.78697308 2.48520152 174.83422118 2.4880125 C159.86383281 2.53207983 144.89343701 2.57271615 129.92303563 2.61208307 C114.5604622 2.65255769 99.19790257 2.69672273 83.8353495 2.74430901 C74.35690484 2.77355279 64.87846114 2.79992279 55.39999848 2.82260943 C48.89905847 2.83844522 42.39813532 2.85786773 35.89721406 2.88009887 C32.14733162 2.89281676 28.397462 2.90396457 24.64756393 2.91084957 C20.57815609 2.91836263 16.5088106 2.93343423 12.43942642 2.94921207 C10.66945882 2.95067923 10.66945882 2.95067923 8.8637343 2.95217603 C2.68999616 2.98296365 -3.28999232 3.29583808 -9.41166306 4.10743046 C-9.41166306 3.11743046 -9.41166306 2.12743046 -9.41166306 1.10743046 C-6.206068 0.15587106 -3.33772668 -0.0119394 0 0 Z " fill="#FE4244" transform="translate(519.4116630554199,222.89256954193115)"/>
<path d="M0 0 C0.66 0 1.32 0 2 0 C0.25432182 6.9520868 -1.81201371 13.80124312 -4 20.625 C-4.37342529 21.83422119 -4.37342529 21.83422119 -4.75439453 23.06787109 C-5.41060991 25.07777241 -6.19602866 27.04450722 -7 29 C-7.99 29.33 -8.98 29.66 -10 30 C-9.71572583 28.41532272 -9.42225182 26.8322943 -9.125 25.25 C-8.96257813 24.36828125 -8.80015625 23.4865625 -8.6328125 22.578125 C-8.0276784 20.11276386 -7.1708632 18.23570335 -6 16 C-5.67 14.824375 -5.34 13.64875 -5 12.4375 C-4 9 -4 9 -2 6 C-2 5.01 -2 4.02 -2 3 C-1.34 3 -0.68 3 0 3 C0 2.01 0 1.02 0 0 Z " fill="#CB1C21" transform="translate(746,376)"/>
<path d="M0 0 C0.66 0 1.32 0 2 0 C1.45438289 4.54680927 0.81177431 8.7725266 -1 13 C-1.99 13.33 -2.98 13.66 -4 14 C-3.71572583 12.41532272 -3.42225182 10.8322943 -3.125 9.25 C-2.96257813 8.36828125 -2.80015625 7.4865625 -2.6328125 6.578125 C-2.03203736 4.13052256 -1.22002883 2.19400143 0 0 Z " fill="#C8141A" transform="translate(740,392)"/>
<path d="M0 0 C1.53690745 2.41040161 2.09752136 3.50082285 1.5390625 6.359375 C1.23742187 7.14828125 0.93578125 7.9371875 0.625 8.75 C0.32851563 9.54921875 0.03203125 10.3484375 -0.2734375 11.171875 C-0.51320313 11.77515625 -0.75296875 12.3784375 -1 13 C-1.66 12.67 -2.32 12.34 -3 12 C-2.69106068 10.3743193 -2.3777305 8.74947252 -2.0625 7.125 C-1.88847656 6.22007812 -1.71445312 5.31515625 -1.53515625 4.3828125 C-1 2 -1 2 0 0 Z " fill="#C21A1F" transform="translate(730,422)"/>
<path d="M0 0 C1.53690745 2.41040161 2.09752136 3.50082285 1.5390625 6.359375 C1.23742187 7.14828125 0.93578125 7.9371875 0.625 8.75 C0.32851563 9.54921875 0.03203125 10.3484375 -0.2734375 11.171875 C-0.51320313 11.77515625 -0.75296875 12.3784375 -1 13 C-1.66 12.34 -2.32 11.68 -3 11 C-2.79296875 8.90625 -2.79296875 8.90625 -2.1875 6.5 C-1.99542969 5.7059375 -1.80335938 4.911875 -1.60546875 4.09375 C-1 2 -1 2 0 0 Z " fill="#C4151B" transform="translate(734,410)"/>
<path d="M0 0 C1.35304209 4.05912626 0.15216503 5.77149591 -1.4375 9.6875 C-2.14712891 11.45673828 -2.14712891 11.45673828 -2.87109375 13.26171875 C-3.24363281 14.16535156 -3.61617187 15.06898438 -4 16 C-5.231394 12.30581799 -4.64432764 9.7943739 -4 6 C-3.01 5.67 -2.02 5.34 -1 5 C-0.67 3.35 -0.34 1.7 0 0 Z " fill="#9C090C" transform="translate(527,471)"/>
</svg> 
